<mxfile host="app.diagrams.net" agent="Mozilla/5.0 (Windows NT 10.0; Win64; x64) AppleWebKit/537.36 (KHTML, like Gecko) Chrome/133.0.0.0 Safari/537.36" version="26.0.11" pages="7">
  <diagram name="Model" id="aBShzDATtO_0L21Axubo">
    <mxGraphModel dx="1300" dy="750" grid="1" gridSize="10" guides="1" tooltips="1" connect="1" arrows="1" fold="1" page="1" pageScale="1" pageWidth="827" pageHeight="1169" math="0" shadow="0">
      <root>
        <mxCell id="0" />
        <mxCell id="1" parent="0" />
        <mxCell id="swcTq0bBN5G8t8YWnUsq-1" value="Model" style="swimlane;fontStyle=0;childLayout=stackLayout;horizontal=1;startSize=30;horizontalStack=0;resizeParent=1;resizeParentMax=0;resizeLast=0;collapsible=1;marginBottom=0;whiteSpace=wrap;html=1;" parent="1" vertex="1">
          <mxGeometry x="180" width="140" height="150" as="geometry">
            <mxRectangle x="10" y="20" width="70" height="30" as="alternateBounds" />
          </mxGeometry>
        </mxCell>
        <mxCell id="swcTq0bBN5G8t8YWnUsq-2" value="&lt;span style=&quot;box-sizing: border-box; margin: 0px; border: 0px; padding: 0px; font-weight: var(--font-weight-bold); font-family: Inter, sans-serif; font-size: 16px; white-space-collapse: preserve; background-color: rgb(255, 255, 255);&quot;&gt;Entity Class&lt;/span&gt;" style="text;strokeColor=none;fillColor=none;align=left;verticalAlign=middle;spacingLeft=4;spacingRight=4;overflow=hidden;points=[[0,0.5],[1,0.5]];portConstraint=eastwest;rotatable=0;whiteSpace=wrap;html=1;" parent="swcTq0bBN5G8t8YWnUsq-1" vertex="1">
          <mxGeometry y="30" width="140" height="30" as="geometry" />
        </mxCell>
        <mxCell id="swcTq0bBN5G8t8YWnUsq-3" value="&lt;span style=&quot;box-sizing: border-box; margin: 0px; border: 0px; padding: 0px; font-weight: var(--font-weight-bold); font-family: Inter, sans-serif; font-size: 16px; white-space-collapse: preserve; background-color: rgb(255, 255, 255);&quot;&gt;Utility Class &lt;/span&gt;" style="text;strokeColor=none;fillColor=none;align=left;verticalAlign=middle;spacingLeft=4;spacingRight=4;overflow=hidden;points=[[0,0.5],[1,0.5]];portConstraint=eastwest;rotatable=0;whiteSpace=wrap;html=1;" parent="swcTq0bBN5G8t8YWnUsq-1" vertex="1">
          <mxGeometry y="60" width="140" height="30" as="geometry" />
        </mxCell>
        <mxCell id="SztFRgZTWqbE5-wy8DgT-5" value="&lt;font style=&quot;font-size: 16px;&quot;&gt;En/De&lt;/font&gt;" style="text;strokeColor=none;fillColor=none;align=left;verticalAlign=middle;spacingLeft=4;spacingRight=4;overflow=hidden;points=[[0,0.5],[1,0.5]];portConstraint=eastwest;rotatable=0;whiteSpace=wrap;html=1;" vertex="1" parent="swcTq0bBN5G8t8YWnUsq-1">
          <mxGeometry y="90" width="140" height="30" as="geometry" />
        </mxCell>
        <mxCell id="swcTq0bBN5G8t8YWnUsq-4" value="&lt;font style=&quot;font-size: 16px;&quot;&gt;DTO&lt;/font&gt;" style="text;strokeColor=none;fillColor=none;align=left;verticalAlign=middle;spacingLeft=4;spacingRight=4;overflow=hidden;points=[[0,0.5],[1,0.5]];portConstraint=eastwest;rotatable=0;whiteSpace=wrap;html=1;" parent="swcTq0bBN5G8t8YWnUsq-1" vertex="1">
          <mxGeometry y="120" width="140" height="30" as="geometry" />
        </mxCell>
        <mxCell id="swcTq0bBN5G8t8YWnUsq-5" value="Entity" style="swimlane;fontStyle=0;childLayout=stackLayout;horizontal=1;startSize=30;horizontalStack=0;resizeParent=1;resizeParentMax=0;resizeLast=0;collapsible=1;marginBottom=0;whiteSpace=wrap;html=1;" parent="1" vertex="1">
          <mxGeometry x="10" y="260" width="140" height="420" as="geometry" />
        </mxCell>
        <mxCell id="swcTq0bBN5G8t8YWnUsq-6" value="Account" style="text;strokeColor=none;fillColor=none;align=left;verticalAlign=middle;spacingLeft=4;spacingRight=4;overflow=hidden;points=[[0,0.5],[1,0.5]];portConstraint=eastwest;rotatable=0;whiteSpace=wrap;html=1;" parent="swcTq0bBN5G8t8YWnUsq-5" vertex="1">
          <mxGeometry y="30" width="140" height="30" as="geometry" />
        </mxCell>
        <mxCell id="swcTq0bBN5G8t8YWnUsq-7" value="Customer" style="text;strokeColor=none;fillColor=none;align=left;verticalAlign=middle;spacingLeft=4;spacingRight=4;overflow=hidden;points=[[0,0.5],[1,0.5]];portConstraint=eastwest;rotatable=0;whiteSpace=wrap;html=1;" parent="swcTq0bBN5G8t8YWnUsq-5" vertex="1">
          <mxGeometry y="60" width="140" height="30" as="geometry" />
        </mxCell>
        <mxCell id="swcTq0bBN5G8t8YWnUsq-8" value="Event" style="text;strokeColor=none;fillColor=none;align=left;verticalAlign=middle;spacingLeft=4;spacingRight=4;overflow=hidden;points=[[0,0.5],[1,0.5]];portConstraint=eastwest;rotatable=0;whiteSpace=wrap;html=1;" parent="swcTq0bBN5G8t8YWnUsq-5" vertex="1">
          <mxGeometry y="90" width="140" height="30" as="geometry" />
        </mxCell>
        <mxCell id="swcTq0bBN5G8t8YWnUsq-31" value="&amp;nbsp;GoodsIn" style="text;html=1;align=left;verticalAlign=middle;whiteSpace=wrap;rounded=0;" parent="swcTq0bBN5G8t8YWnUsq-5" vertex="1">
          <mxGeometry y="120" width="140" height="30" as="geometry" />
        </mxCell>
        <mxCell id="swcTq0bBN5G8t8YWnUsq-34" value="&amp;nbsp;HelpDocs" style="text;html=1;align=left;verticalAlign=middle;whiteSpace=wrap;rounded=0;" parent="swcTq0bBN5G8t8YWnUsq-5" vertex="1">
          <mxGeometry y="150" width="140" height="30" as="geometry" />
        </mxCell>
        <mxCell id="swcTq0bBN5G8t8YWnUsq-35" value="&amp;nbsp;InventoryChange" style="text;html=1;align=left;verticalAlign=middle;whiteSpace=wrap;rounded=0;" parent="swcTq0bBN5G8t8YWnUsq-5" vertex="1">
          <mxGeometry y="180" width="140" height="30" as="geometry" />
        </mxCell>
        <mxCell id="swcTq0bBN5G8t8YWnUsq-37" value="&amp;nbsp;Order" style="text;html=1;align=left;verticalAlign=middle;whiteSpace=wrap;rounded=0;" parent="swcTq0bBN5G8t8YWnUsq-5" vertex="1">
          <mxGeometry y="210" width="140" height="30" as="geometry" />
        </mxCell>
        <mxCell id="swcTq0bBN5G8t8YWnUsq-36" value="&amp;nbsp;OrderDetail" style="text;html=1;align=left;verticalAlign=middle;whiteSpace=wrap;rounded=0;" parent="swcTq0bBN5G8t8YWnUsq-5" vertex="1">
          <mxGeometry y="240" width="140" height="30" as="geometry" />
        </mxCell>
        <mxCell id="swcTq0bBN5G8t8YWnUsq-33" value="&amp;nbsp;Product" style="text;html=1;align=left;verticalAlign=middle;whiteSpace=wrap;rounded=0;" parent="swcTq0bBN5G8t8YWnUsq-5" vertex="1">
          <mxGeometry y="270" width="140" height="30" as="geometry" />
        </mxCell>
        <mxCell id="swcTq0bBN5G8t8YWnUsq-38" value="&amp;nbsp;Supplier" style="text;html=1;align=left;verticalAlign=middle;whiteSpace=wrap;rounded=0;" parent="swcTq0bBN5G8t8YWnUsq-5" vertex="1">
          <mxGeometry y="300" width="140" height="30" as="geometry" />
        </mxCell>
        <mxCell id="swcTq0bBN5G8t8YWnUsq-39" value="&amp;nbsp;SupplierOrder" style="text;html=1;align=left;verticalAlign=middle;whiteSpace=wrap;rounded=0;" parent="swcTq0bBN5G8t8YWnUsq-5" vertex="1">
          <mxGeometry y="330" width="140" height="30" as="geometry" />
        </mxCell>
        <mxCell id="swcTq0bBN5G8t8YWnUsq-41" value="&amp;nbsp;SuppOrdDetail" style="text;html=1;align=left;verticalAlign=middle;whiteSpace=wrap;rounded=0;" parent="swcTq0bBN5G8t8YWnUsq-5" vertex="1">
          <mxGeometry y="360" width="140" height="30" as="geometry" />
        </mxCell>
        <mxCell id="swcTq0bBN5G8t8YWnUsq-40" value="&amp;nbsp;User" style="text;html=1;align=left;verticalAlign=middle;whiteSpace=wrap;rounded=0;" parent="swcTq0bBN5G8t8YWnUsq-5" vertex="1">
          <mxGeometry y="390" width="140" height="30" as="geometry" />
        </mxCell>
        <mxCell id="swcTq0bBN5G8t8YWnUsq-9" value="IsValid" style="swimlane;fontStyle=0;childLayout=stackLayout;horizontal=1;startSize=30;horizontalStack=0;resizeParent=1;resizeParentMax=0;resizeLast=0;collapsible=1;marginBottom=0;whiteSpace=wrap;html=1;" parent="1" vertex="1">
          <mxGeometry x="180" y="260" width="140" height="120" as="geometry" />
        </mxCell>
        <mxCell id="swcTq0bBN5G8t8YWnUsq-10" value="NullVal" style="text;strokeColor=none;fillColor=none;align=left;verticalAlign=middle;spacingLeft=4;spacingRight=4;overflow=hidden;points=[[0,0.5],[1,0.5]];portConstraint=eastwest;rotatable=0;whiteSpace=wrap;html=1;" parent="swcTq0bBN5G8t8YWnUsq-9" vertex="1">
          <mxGeometry y="30" width="140" height="30" as="geometry" />
        </mxCell>
        <mxCell id="swcTq0bBN5G8t8YWnUsq-11" value="N/A" style="text;strokeColor=none;fillColor=none;align=left;verticalAlign=middle;spacingLeft=4;spacingRight=4;overflow=hidden;points=[[0,0.5],[1,0.5]];portConstraint=eastwest;rotatable=0;whiteSpace=wrap;html=1;" parent="swcTq0bBN5G8t8YWnUsq-9" vertex="1">
          <mxGeometry y="60" width="140" height="30" as="geometry" />
        </mxCell>
        <mxCell id="swcTq0bBN5G8t8YWnUsq-12" value="N/A" style="text;strokeColor=none;fillColor=none;align=left;verticalAlign=middle;spacingLeft=4;spacingRight=4;overflow=hidden;points=[[0,0.5],[1,0.5]];portConstraint=eastwest;rotatable=0;whiteSpace=wrap;html=1;" parent="swcTq0bBN5G8t8YWnUsq-9" vertex="1">
          <mxGeometry y="90" width="140" height="30" as="geometry" />
        </mxCell>
        <mxCell id="swcTq0bBN5G8t8YWnUsq-13" value="DTO" style="swimlane;fontStyle=0;childLayout=stackLayout;horizontal=1;startSize=30;horizontalStack=0;resizeParent=1;resizeParentMax=0;resizeLast=0;collapsible=1;marginBottom=0;whiteSpace=wrap;html=1;" parent="1" vertex="1">
          <mxGeometry x="344" y="260" width="140" height="150" as="geometry" />
        </mxCell>
        <mxCell id="swcTq0bBN5G8t8YWnUsq-14" value="BalanceUpdate" style="text;strokeColor=none;fillColor=none;align=left;verticalAlign=middle;spacingLeft=4;spacingRight=4;overflow=hidden;points=[[0,0.5],[1,0.5]];portConstraint=eastwest;rotatable=0;whiteSpace=wrap;html=1;" parent="swcTq0bBN5G8t8YWnUsq-13" vertex="1">
          <mxGeometry y="30" width="140" height="30" as="geometry" />
        </mxCell>
        <mxCell id="swcTq0bBN5G8t8YWnUsq-15" value="InventoryUpdate" style="text;strokeColor=none;fillColor=none;align=left;verticalAlign=middle;spacingLeft=4;spacingRight=4;overflow=hidden;points=[[0,0.5],[1,0.5]];portConstraint=eastwest;rotatable=0;whiteSpace=wrap;html=1;" parent="swcTq0bBN5G8t8YWnUsq-13" vertex="1">
          <mxGeometry y="60" width="140" height="30" as="geometry" />
        </mxCell>
        <mxCell id="swcTq0bBN5G8t8YWnUsq-42" value="NotesForCust" style="text;strokeColor=none;fillColor=none;align=left;verticalAlign=middle;spacingLeft=4;spacingRight=4;overflow=hidden;points=[[0,0.5],[1,0.5]];portConstraint=eastwest;rotatable=0;whiteSpace=wrap;html=1;" parent="swcTq0bBN5G8t8YWnUsq-13" vertex="1">
          <mxGeometry y="90" width="140" height="30" as="geometry" />
        </mxCell>
        <mxCell id="swcTq0bBN5G8t8YWnUsq-16" value="EventNotes" style="text;strokeColor=none;fillColor=none;align=left;verticalAlign=middle;spacingLeft=4;spacingRight=4;overflow=hidden;points=[[0,0.5],[1,0.5]];portConstraint=eastwest;rotatable=0;whiteSpace=wrap;html=1;" parent="swcTq0bBN5G8t8YWnUsq-13" vertex="1">
          <mxGeometry y="120" width="140" height="30" as="geometry" />
        </mxCell>
        <mxCell id="swcTq0bBN5G8t8YWnUsq-17" style="edgeStyle=orthogonalEdgeStyle;rounded=0;orthogonalLoop=1;jettySize=auto;html=1;exitX=0;exitY=0.5;exitDx=0;exitDy=0;" parent="1" source="swcTq0bBN5G8t8YWnUsq-2" target="swcTq0bBN5G8t8YWnUsq-5" edge="1">
          <mxGeometry relative="1" as="geometry" />
        </mxCell>
        <mxCell id="swcTq0bBN5G8t8YWnUsq-18" style="edgeStyle=orthogonalEdgeStyle;rounded=0;orthogonalLoop=1;jettySize=auto;html=1;exitX=0;exitY=0.5;exitDx=0;exitDy=0;entryX=0.5;entryY=0;entryDx=0;entryDy=0;" parent="1" source="swcTq0bBN5G8t8YWnUsq-3" target="swcTq0bBN5G8t8YWnUsq-9" edge="1">
          <mxGeometry relative="1" as="geometry">
            <Array as="points">
              <mxPoint x="100" y="75" />
              <mxPoint x="100" y="175" />
              <mxPoint x="250" y="175" />
            </Array>
          </mxGeometry>
        </mxCell>
        <mxCell id="swcTq0bBN5G8t8YWnUsq-19" style="edgeStyle=orthogonalEdgeStyle;rounded=0;orthogonalLoop=1;jettySize=auto;html=1;exitX=1;exitY=0.5;exitDx=0;exitDy=0;" parent="1" source="swcTq0bBN5G8t8YWnUsq-4" target="swcTq0bBN5G8t8YWnUsq-13" edge="1">
          <mxGeometry relative="1" as="geometry" />
        </mxCell>
        <mxCell id="SztFRgZTWqbE5-wy8DgT-1" value="EncryptionAndDecryption" style="swimlane;fontStyle=0;childLayout=stackLayout;horizontal=1;startSize=30;horizontalStack=0;resizeParent=1;resizeParentMax=0;resizeLast=0;collapsible=1;marginBottom=0;whiteSpace=wrap;html=1;" vertex="1" parent="1">
          <mxGeometry x="520" y="260" width="200" height="120" as="geometry" />
        </mxCell>
        <mxCell id="SztFRgZTWqbE5-wy8DgT-2" value="GetValidKey" style="text;strokeColor=none;fillColor=none;align=left;verticalAlign=middle;spacingLeft=4;spacingRight=4;overflow=hidden;points=[[0,0.5],[1,0.5]];portConstraint=eastwest;rotatable=0;whiteSpace=wrap;html=1;" vertex="1" parent="SztFRgZTWqbE5-wy8DgT-1">
          <mxGeometry y="30" width="200" height="30" as="geometry" />
        </mxCell>
        <mxCell id="SztFRgZTWqbE5-wy8DgT-3" value="Encrypt(string plaintext)" style="text;strokeColor=none;fillColor=none;align=left;verticalAlign=middle;spacingLeft=4;spacingRight=4;overflow=hidden;points=[[0,0.5],[1,0.5]];portConstraint=eastwest;rotatable=0;whiteSpace=wrap;html=1;" vertex="1" parent="SztFRgZTWqbE5-wy8DgT-1">
          <mxGeometry y="60" width="200" height="30" as="geometry" />
        </mxCell>
        <mxCell id="SztFRgZTWqbE5-wy8DgT-4" value="Decrypt(string&amp;nbsp;ciphertext)" style="text;strokeColor=none;fillColor=none;align=left;verticalAlign=middle;spacingLeft=4;spacingRight=4;overflow=hidden;points=[[0,0.5],[1,0.5]];portConstraint=eastwest;rotatable=0;whiteSpace=wrap;html=1;" vertex="1" parent="SztFRgZTWqbE5-wy8DgT-1">
          <mxGeometry y="90" width="200" height="30" as="geometry" />
        </mxCell>
        <mxCell id="SztFRgZTWqbE5-wy8DgT-6" style="edgeStyle=orthogonalEdgeStyle;rounded=0;orthogonalLoop=1;jettySize=auto;html=1;exitX=1;exitY=0.5;exitDx=0;exitDy=0;entryX=0.5;entryY=0;entryDx=0;entryDy=0;" edge="1" parent="1" source="SztFRgZTWqbE5-wy8DgT-5" target="SztFRgZTWqbE5-wy8DgT-1">
          <mxGeometry relative="1" as="geometry" />
        </mxCell>
      </root>
    </mxGraphModel>
  </diagram>
  <diagram id="aiFfPCo2Gb_57GteQoNb" name="DataAccess">
    <mxGraphModel dx="847" dy="635" grid="1" gridSize="10" guides="1" tooltips="1" connect="1" arrows="1" fold="1" page="1" pageScale="1" pageWidth="827" pageHeight="1169" math="0" shadow="0">
      <root>
        <mxCell id="0" />
        <mxCell id="1" parent="0" />
        <mxCell id="xdM2lULHczBko2gasiNH-1" value="&lt;span style=&quot;text-align: left;&quot;&gt;Repository&lt;/span&gt;" style="swimlane;fontStyle=0;childLayout=stackLayout;horizontal=1;startSize=30;horizontalStack=0;resizeParent=1;resizeParentMax=0;resizeLast=0;collapsible=1;marginBottom=0;whiteSpace=wrap;html=1;" vertex="1" parent="1">
          <mxGeometry y="240" width="170" height="450" as="geometry" />
        </mxCell>
        <mxCell id="xdM2lULHczBko2gasiNH-37" value="&amp;nbsp;Base" style="text;html=1;align=left;verticalAlign=middle;whiteSpace=wrap;rounded=0;" vertex="1" parent="xdM2lULHczBko2gasiNH-1">
          <mxGeometry y="30" width="170" height="30" as="geometry" />
        </mxCell>
        <mxCell id="xdM2lULHczBko2gasiNH-2" value="Account" style="text;strokeColor=none;fillColor=none;align=left;verticalAlign=middle;spacingLeft=4;spacingRight=4;overflow=hidden;points=[[0,0.5],[1,0.5]];portConstraint=eastwest;rotatable=0;whiteSpace=wrap;html=1;" vertex="1" parent="xdM2lULHczBko2gasiNH-1">
          <mxGeometry y="60" width="170" height="30" as="geometry" />
        </mxCell>
        <mxCell id="xdM2lULHczBko2gasiNH-3" value="Customer" style="text;strokeColor=none;fillColor=none;align=left;verticalAlign=middle;spacingLeft=4;spacingRight=4;overflow=hidden;points=[[0,0.5],[1,0.5]];portConstraint=eastwest;rotatable=0;whiteSpace=wrap;html=1;" vertex="1" parent="xdM2lULHczBko2gasiNH-1">
          <mxGeometry y="90" width="170" height="30" as="geometry" />
        </mxCell>
        <mxCell id="xdM2lULHczBko2gasiNH-4" value="Event" style="text;strokeColor=none;fillColor=none;align=left;verticalAlign=middle;spacingLeft=4;spacingRight=4;overflow=hidden;points=[[0,0.5],[1,0.5]];portConstraint=eastwest;rotatable=0;whiteSpace=wrap;html=1;" vertex="1" parent="xdM2lULHczBko2gasiNH-1">
          <mxGeometry y="120" width="170" height="30" as="geometry" />
        </mxCell>
        <mxCell id="xdM2lULHczBko2gasiNH-5" value="&amp;nbsp;GoodsIn" style="text;html=1;align=left;verticalAlign=middle;whiteSpace=wrap;rounded=0;" vertex="1" parent="xdM2lULHczBko2gasiNH-1">
          <mxGeometry y="150" width="170" height="30" as="geometry" />
        </mxCell>
        <mxCell id="xdM2lULHczBko2gasiNH-6" value="&amp;nbsp;HelpDocs" style="text;html=1;align=left;verticalAlign=middle;whiteSpace=wrap;rounded=0;" vertex="1" parent="xdM2lULHczBko2gasiNH-1">
          <mxGeometry y="180" width="170" height="30" as="geometry" />
        </mxCell>
        <mxCell id="xdM2lULHczBko2gasiNH-7" value="&amp;nbsp;InventoryChange" style="text;html=1;align=left;verticalAlign=middle;whiteSpace=wrap;rounded=0;" vertex="1" parent="xdM2lULHczBko2gasiNH-1">
          <mxGeometry y="210" width="170" height="30" as="geometry" />
        </mxCell>
        <mxCell id="xdM2lULHczBko2gasiNH-8" value="&amp;nbsp;Order" style="text;html=1;align=left;verticalAlign=middle;whiteSpace=wrap;rounded=0;" vertex="1" parent="xdM2lULHczBko2gasiNH-1">
          <mxGeometry y="240" width="170" height="30" as="geometry" />
        </mxCell>
        <mxCell id="xdM2lULHczBko2gasiNH-9" value="&amp;nbsp;OrderDetail" style="text;html=1;align=left;verticalAlign=middle;whiteSpace=wrap;rounded=0;" vertex="1" parent="xdM2lULHczBko2gasiNH-1">
          <mxGeometry y="270" width="170" height="30" as="geometry" />
        </mxCell>
        <mxCell id="xdM2lULHczBko2gasiNH-10" value="&amp;nbsp;Product" style="text;html=1;align=left;verticalAlign=middle;whiteSpace=wrap;rounded=0;" vertex="1" parent="xdM2lULHczBko2gasiNH-1">
          <mxGeometry y="300" width="170" height="30" as="geometry" />
        </mxCell>
        <mxCell id="xdM2lULHczBko2gasiNH-11" value="&amp;nbsp;Supplier" style="text;html=1;align=left;verticalAlign=middle;whiteSpace=wrap;rounded=0;" vertex="1" parent="xdM2lULHczBko2gasiNH-1">
          <mxGeometry y="330" width="170" height="30" as="geometry" />
        </mxCell>
        <mxCell id="xdM2lULHczBko2gasiNH-14" value="&amp;nbsp;User" style="text;html=1;align=left;verticalAlign=middle;whiteSpace=wrap;rounded=0;" vertex="1" parent="xdM2lULHczBko2gasiNH-1">
          <mxGeometry y="360" width="170" height="30" as="geometry" />
        </mxCell>
        <mxCell id="xdM2lULHczBko2gasiNH-51" value=" ValidationRepository" style="text;whiteSpace=wrap;" vertex="1" parent="xdM2lULHczBko2gasiNH-1">
          <mxGeometry y="390" width="170" height="30" as="geometry" />
        </mxCell>
        <mxCell id="xdM2lULHczBko2gasiNH-52" value="NumberGenerationRepository" style="text;whiteSpace=wrap;" vertex="1" parent="xdM2lULHczBko2gasiNH-1">
          <mxGeometry y="420" width="170" height="30" as="geometry" />
        </mxCell>
        <mxCell id="xdM2lULHczBko2gasiNH-15" value="DataAccess" style="swimlane;fontStyle=0;childLayout=stackLayout;horizontal=1;startSize=30;horizontalStack=0;resizeParent=1;resizeParentMax=0;resizeLast=0;collapsible=1;marginBottom=0;whiteSpace=wrap;html=1;" vertex="1" parent="1">
          <mxGeometry x="365" y="10" width="140" height="120" as="geometry" />
        </mxCell>
        <mxCell id="xdM2lULHczBko2gasiNH-16" value="Repository" style="text;strokeColor=none;fillColor=none;align=left;verticalAlign=middle;spacingLeft=4;spacingRight=4;overflow=hidden;points=[[0,0.5],[1,0.5]];portConstraint=eastwest;rotatable=0;whiteSpace=wrap;html=1;" vertex="1" parent="xdM2lULHczBko2gasiNH-15">
          <mxGeometry y="30" width="140" height="30" as="geometry" />
        </mxCell>
        <mxCell id="xdM2lULHczBko2gasiNH-17" value="Interface" style="text;strokeColor=none;fillColor=none;align=left;verticalAlign=middle;spacingLeft=4;spacingRight=4;overflow=hidden;points=[[0,0.5],[1,0.5]];portConstraint=eastwest;rotatable=0;whiteSpace=wrap;html=1;" vertex="1" parent="xdM2lULHczBko2gasiNH-15">
          <mxGeometry y="60" width="140" height="30" as="geometry" />
        </mxCell>
        <mxCell id="xdM2lULHczBko2gasiNH-18" value="DatabaseConnection" style="text;strokeColor=none;fillColor=none;align=left;verticalAlign=middle;spacingLeft=4;spacingRight=4;overflow=hidden;points=[[0,0.5],[1,0.5]];portConstraint=eastwest;rotatable=0;whiteSpace=wrap;html=1;" vertex="1" parent="xdM2lULHczBko2gasiNH-15">
          <mxGeometry y="90" width="140" height="30" as="geometry" />
        </mxCell>
        <mxCell id="xdM2lULHczBko2gasiNH-33" value="DbConnection" style="swimlane;fontStyle=0;childLayout=stackLayout;horizontal=1;startSize=30;horizontalStack=0;resizeParent=1;resizeParentMax=0;resizeLast=0;collapsible=1;marginBottom=0;whiteSpace=wrap;html=1;" vertex="1" parent="1">
          <mxGeometry x="680" y="240" width="140" height="120" as="geometry" />
        </mxCell>
        <mxCell id="xdM2lULHczBko2gasiNH-34" value="Item 1" style="text;strokeColor=none;fillColor=none;align=left;verticalAlign=middle;spacingLeft=4;spacingRight=4;overflow=hidden;points=[[0,0.5],[1,0.5]];portConstraint=eastwest;rotatable=0;whiteSpace=wrap;html=1;" vertex="1" parent="xdM2lULHczBko2gasiNH-33">
          <mxGeometry y="30" width="140" height="30" as="geometry" />
        </mxCell>
        <mxCell id="xdM2lULHczBko2gasiNH-35" value="Item 2" style="text;strokeColor=none;fillColor=none;align=left;verticalAlign=middle;spacingLeft=4;spacingRight=4;overflow=hidden;points=[[0,0.5],[1,0.5]];portConstraint=eastwest;rotatable=0;whiteSpace=wrap;html=1;" vertex="1" parent="xdM2lULHczBko2gasiNH-33">
          <mxGeometry y="60" width="140" height="30" as="geometry" />
        </mxCell>
        <mxCell id="xdM2lULHczBko2gasiNH-36" value="Item 3" style="text;strokeColor=none;fillColor=none;align=left;verticalAlign=middle;spacingLeft=4;spacingRight=4;overflow=hidden;points=[[0,0.5],[1,0.5]];portConstraint=eastwest;rotatable=0;whiteSpace=wrap;html=1;" vertex="1" parent="xdM2lULHczBko2gasiNH-33">
          <mxGeometry y="90" width="140" height="30" as="geometry" />
        </mxCell>
        <mxCell id="xdM2lULHczBko2gasiNH-38" value="&lt;span style=&quot;text-align: left;&quot;&gt;Interface&lt;/span&gt;" style="swimlane;fontStyle=0;childLayout=stackLayout;horizontal=1;startSize=30;horizontalStack=0;resizeParent=1;resizeParentMax=0;resizeLast=0;collapsible=1;marginBottom=0;whiteSpace=wrap;html=1;" vertex="1" parent="1">
          <mxGeometry x="490" y="240" width="170" height="420" as="geometry" />
        </mxCell>
        <mxCell id="xdM2lULHczBko2gasiNH-40" value="Account" style="text;strokeColor=none;fillColor=none;align=left;verticalAlign=middle;spacingLeft=4;spacingRight=4;overflow=hidden;points=[[0,0.5],[1,0.5]];portConstraint=eastwest;rotatable=0;whiteSpace=wrap;html=1;" vertex="1" parent="xdM2lULHczBko2gasiNH-38">
          <mxGeometry y="30" width="170" height="30" as="geometry" />
        </mxCell>
        <mxCell id="xdM2lULHczBko2gasiNH-41" value="Customer" style="text;strokeColor=none;fillColor=none;align=left;verticalAlign=middle;spacingLeft=4;spacingRight=4;overflow=hidden;points=[[0,0.5],[1,0.5]];portConstraint=eastwest;rotatable=0;whiteSpace=wrap;html=1;" vertex="1" parent="xdM2lULHczBko2gasiNH-38">
          <mxGeometry y="60" width="170" height="30" as="geometry" />
        </mxCell>
        <mxCell id="xdM2lULHczBko2gasiNH-42" value="Event" style="text;strokeColor=none;fillColor=none;align=left;verticalAlign=middle;spacingLeft=4;spacingRight=4;overflow=hidden;points=[[0,0.5],[1,0.5]];portConstraint=eastwest;rotatable=0;whiteSpace=wrap;html=1;" vertex="1" parent="xdM2lULHczBko2gasiNH-38">
          <mxGeometry y="90" width="170" height="30" as="geometry" />
        </mxCell>
        <mxCell id="xdM2lULHczBko2gasiNH-43" value="&amp;nbsp;GoodsIn" style="text;html=1;align=left;verticalAlign=middle;whiteSpace=wrap;rounded=0;" vertex="1" parent="xdM2lULHczBko2gasiNH-38">
          <mxGeometry y="120" width="170" height="30" as="geometry" />
        </mxCell>
        <mxCell id="xdM2lULHczBko2gasiNH-44" value="&amp;nbsp;HelpDocs" style="text;html=1;align=left;verticalAlign=middle;whiteSpace=wrap;rounded=0;" vertex="1" parent="xdM2lULHczBko2gasiNH-38">
          <mxGeometry y="150" width="170" height="30" as="geometry" />
        </mxCell>
        <mxCell id="xdM2lULHczBko2gasiNH-45" value="&amp;nbsp;InventoryChange" style="text;html=1;align=left;verticalAlign=middle;whiteSpace=wrap;rounded=0;" vertex="1" parent="xdM2lULHczBko2gasiNH-38">
          <mxGeometry y="180" width="170" height="30" as="geometry" />
        </mxCell>
        <mxCell id="xdM2lULHczBko2gasiNH-46" value="&amp;nbsp;Order" style="text;html=1;align=left;verticalAlign=middle;whiteSpace=wrap;rounded=0;" vertex="1" parent="xdM2lULHczBko2gasiNH-38">
          <mxGeometry y="210" width="170" height="30" as="geometry" />
        </mxCell>
        <mxCell id="xdM2lULHczBko2gasiNH-47" value="&amp;nbsp;OrderDetail" style="text;html=1;align=left;verticalAlign=middle;whiteSpace=wrap;rounded=0;" vertex="1" parent="xdM2lULHczBko2gasiNH-38">
          <mxGeometry y="240" width="170" height="30" as="geometry" />
        </mxCell>
        <mxCell id="xdM2lULHczBko2gasiNH-48" value="&amp;nbsp;Product" style="text;html=1;align=left;verticalAlign=middle;whiteSpace=wrap;rounded=0;" vertex="1" parent="xdM2lULHczBko2gasiNH-38">
          <mxGeometry y="270" width="170" height="30" as="geometry" />
        </mxCell>
        <mxCell id="xdM2lULHczBko2gasiNH-49" value="&amp;nbsp;Supplier" style="text;html=1;align=left;verticalAlign=middle;whiteSpace=wrap;rounded=0;" vertex="1" parent="xdM2lULHczBko2gasiNH-38">
          <mxGeometry y="300" width="170" height="30" as="geometry" />
        </mxCell>
        <mxCell id="xdM2lULHczBko2gasiNH-50" value="&amp;nbsp;User" style="text;html=1;align=left;verticalAlign=middle;whiteSpace=wrap;rounded=0;" vertex="1" parent="xdM2lULHczBko2gasiNH-38">
          <mxGeometry y="330" width="170" height="30" as="geometry" />
        </mxCell>
        <mxCell id="xdM2lULHczBko2gasiNH-53" value=" ValidationRepository" style="text;whiteSpace=wrap;" vertex="1" parent="xdM2lULHczBko2gasiNH-38">
          <mxGeometry y="360" width="170" height="30" as="geometry" />
        </mxCell>
        <mxCell id="xdM2lULHczBko2gasiNH-54" value="NumberGenerationRepository" style="text;whiteSpace=wrap;" vertex="1" parent="xdM2lULHczBko2gasiNH-38">
          <mxGeometry y="390" width="170" height="30" as="geometry" />
        </mxCell>
        <mxCell id="xdM2lULHczBko2gasiNH-57" style="edgeStyle=orthogonalEdgeStyle;rounded=0;orthogonalLoop=1;jettySize=auto;html=1;exitX=1;exitY=0.5;exitDx=0;exitDy=0;" edge="1" parent="1" source="xdM2lULHczBko2gasiNH-18" target="xdM2lULHczBko2gasiNH-33">
          <mxGeometry relative="1" as="geometry" />
        </mxCell>
        <mxCell id="Jyy4qIo0elXnEZxZfUjG-2" style="edgeStyle=orthogonalEdgeStyle;rounded=0;orthogonalLoop=1;jettySize=auto;html=1;exitX=0;exitY=0.5;exitDx=0;exitDy=0;" edge="1" parent="1" source="xdM2lULHczBko2gasiNH-16" target="xdM2lULHczBko2gasiNH-1">
          <mxGeometry relative="1" as="geometry" />
        </mxCell>
        <mxCell id="Jyy4qIo0elXnEZxZfUjG-4" style="edgeStyle=orthogonalEdgeStyle;rounded=0;orthogonalLoop=1;jettySize=auto;html=1;exitX=0;exitY=0.5;exitDx=0;exitDy=0;entryX=0.5;entryY=0;entryDx=0;entryDy=0;" edge="1" parent="1" source="xdM2lULHczBko2gasiNH-17" target="xdM2lULHczBko2gasiNH-38">
          <mxGeometry relative="1" as="geometry" />
        </mxCell>
        <mxCell id="Jyy4qIo0elXnEZxZfUjG-5" value="Account" style="swimlane;whiteSpace=wrap;html=1;" vertex="1" collapsed="1" parent="1">
          <mxGeometry x="200" y="200" width="140" height="30" as="geometry">
            <mxRectangle x="200" y="200" width="220" height="170" as="alternateBounds" />
          </mxGeometry>
        </mxCell>
        <mxCell id="Jyy4qIo0elXnEZxZfUjG-7" value="GetAllAccountsAsync&lt;div&gt;GetAccountByIDAsync&lt;/div&gt;&lt;div&gt;AddAccountAsync&lt;/div&gt;&lt;div&gt;UpdateAccountAsync&lt;/div&gt;&lt;div&gt;DeleteAccountAsync&lt;/div&gt;&lt;div&gt;GetBalanceAsync&lt;/div&gt;&lt;div&gt;UpdateAccountBalanceAsync&lt;/div&gt;&lt;div&gt;UpdateAccountPasswordAsync&lt;/div&gt;&lt;div&gt;GenerateNewAccountNumberAsync&lt;/div&gt;" style="text;html=1;align=left;verticalAlign=middle;resizable=0;points=[];autosize=1;strokeColor=none;fillColor=none;gradientColor=none;" vertex="1" parent="Jyy4qIo0elXnEZxZfUjG-5">
          <mxGeometry y="30" width="220" height="140" as="geometry" />
        </mxCell>
        <mxCell id="Jyy4qIo0elXnEZxZfUjG-6" value="Vertical Container" style="swimlane;whiteSpace=wrap;html=1;" vertex="1" collapsed="1" parent="1">
          <mxGeometry x="200" y="270" width="140" height="30" as="geometry">
            <mxRectangle x="200" y="270" width="200" height="200" as="alternateBounds" />
          </mxGeometry>
        </mxCell>
      </root>
    </mxGraphModel>
  </diagram>
  <diagram id="AdFecW99sJpmrAhvZyQT" name="Business">
    <mxGraphModel dx="847" dy="635" grid="1" gridSize="10" guides="1" tooltips="1" connect="1" arrows="1" fold="1" page="1" pageScale="1" pageWidth="827" pageHeight="1169" math="0" shadow="0">
      <root>
        <mxCell id="0" />
        <mxCell id="1" parent="0" />
      </root>
    </mxGraphModel>
  </diagram>
  <diagram id="cYCsrKmTD59QSH4vOtyU" name="API">
    <mxGraphModel dx="847" dy="635" grid="1" gridSize="10" guides="1" tooltips="1" connect="1" arrows="1" fold="1" page="1" pageScale="1" pageWidth="827" pageHeight="1169" math="0" shadow="0">
      <root>
        <mxCell id="0" />
        <mxCell id="1" parent="0" />
      </root>
    </mxGraphModel>
  </diagram>
  <diagram id="mHoOniM6hDjLDA4S9wct" name="UI">
    <mxGraphModel dx="847" dy="635" grid="1" gridSize="10" guides="1" tooltips="1" connect="1" arrows="1" fold="1" page="1" pageScale="1" pageWidth="827" pageHeight="1169" math="0" shadow="0">
      <root>
        <mxCell id="0" />
        <mxCell id="1" parent="0" />
      </root>
    </mxGraphModel>
  </diagram>
  <diagram id="Wtwtt8iEMNdJAcjQvf4h" name="ShareFile">
    <mxGraphModel dx="996" dy="747" grid="1" gridSize="10" guides="1" tooltips="1" connect="1" arrows="1" fold="1" page="1" pageScale="1" pageWidth="827" pageHeight="1169" math="0" shadow="0">
      <root>
        <mxCell id="0" />
        <mxCell id="1" parent="0" />
        <mxCell id="V2i5g9T7WKqpp7zr7P-A-1" value="ShareFile" style="swimlane;fontStyle=0;childLayout=stackLayout;horizontal=1;startSize=30;horizontalStack=0;resizeParent=1;resizeParentMax=0;resizeLast=0;collapsible=1;marginBottom=0;whiteSpace=wrap;html=1;" vertex="1" parent="1">
          <mxGeometry x="330" width="210" height="390" as="geometry" />
        </mxCell>
        <mxCell id="V2i5g9T7WKqpp7zr7P-A-2" value="&lt;span style=&quot;text-align: center;&quot;&gt;Forms Management&lt;/span&gt;" style="text;strokeColor=none;fillColor=none;align=left;verticalAlign=middle;spacingLeft=4;spacingRight=4;overflow=hidden;points=[[0,0.5],[1,0.5]];portConstraint=eastwest;rotatable=0;whiteSpace=wrap;html=1;" vertex="1" parent="V2i5g9T7WKqpp7zr7P-A-1">
          <mxGeometry y="30" width="210" height="30" as="geometry" />
        </mxCell>
        <mxCell id="V2i5g9T7WKqpp7zr7P-A-3" value="TextBox Management" style="text;strokeColor=none;fillColor=none;align=left;verticalAlign=middle;spacingLeft=4;spacingRight=4;overflow=hidden;points=[[0,0.5],[1,0.5]];portConstraint=eastwest;rotatable=0;whiteSpace=wrap;html=1;" vertex="1" parent="V2i5g9T7WKqpp7zr7P-A-1">
          <mxGeometry y="60" width="210" height="30" as="geometry" />
        </mxCell>
        <mxCell id="TzvX0-a--vITG9FtiX5o-1" value="&lt;font face=&quot;Inter, sans-serif&quot;&gt;&lt;span style=&quot;white-space-collapse: preserve;&quot;&gt;Other Controls Management&lt;/span&gt;&lt;/font&gt;" style="text;strokeColor=none;fillColor=none;align=left;verticalAlign=middle;spacingLeft=4;spacingRight=4;overflow=hidden;points=[[0,0.5],[1,0.5]];portConstraint=eastwest;rotatable=0;whiteSpace=wrap;html=1;" vertex="1" parent="V2i5g9T7WKqpp7zr7P-A-1">
          <mxGeometry y="90" width="210" height="30" as="geometry" />
        </mxCell>
        <mxCell id="TzvX0-a--vITG9FtiX5o-3" value="&lt;font face=&quot;Inter, sans-serif&quot;&gt;&lt;span style=&quot;white-space-collapse: preserve;&quot;&gt;DataGridView Management&lt;/span&gt;&lt;/font&gt;" style="text;strokeColor=none;fillColor=none;align=left;verticalAlign=middle;spacingLeft=4;spacingRight=4;overflow=hidden;points=[[0,0.5],[1,0.5]];portConstraint=eastwest;rotatable=0;whiteSpace=wrap;html=1;" vertex="1" parent="V2i5g9T7WKqpp7zr7P-A-1">
          <mxGeometry y="120" width="210" height="30" as="geometry" />
        </mxCell>
        <mxCell id="TzvX0-a--vITG9FtiX5o-4" value="&lt;font face=&quot;Inter, sans-serif&quot;&gt;&lt;span style=&quot;white-space-collapse: preserve;&quot;&gt;Data Management&lt;/span&gt;&lt;/font&gt;" style="text;strokeColor=none;fillColor=none;align=left;verticalAlign=middle;spacingLeft=4;spacingRight=4;overflow=hidden;points=[[0,0.5],[1,0.5]];portConstraint=eastwest;rotatable=0;whiteSpace=wrap;html=1;" vertex="1" parent="V2i5g9T7WKqpp7zr7P-A-1">
          <mxGeometry y="150" width="210" height="30" as="geometry" />
        </mxCell>
        <mxCell id="TzvX0-a--vITG9FtiX5o-7" value="&lt;font face=&quot;Inter, sans-serif&quot;&gt;&lt;span style=&quot;white-space-collapse: preserve;&quot;&gt;Confirmation and Validation&lt;/span&gt;&lt;/font&gt;" style="text;strokeColor=none;fillColor=none;align=left;verticalAlign=middle;spacingLeft=4;spacingRight=4;overflow=hidden;points=[[0,0.5],[1,0.5]];portConstraint=eastwest;rotatable=0;whiteSpace=wrap;html=1;" vertex="1" parent="V2i5g9T7WKqpp7zr7P-A-1">
          <mxGeometry y="180" width="210" height="30" as="geometry" />
        </mxCell>
        <mxCell id="TzvX0-a--vITG9FtiX5o-8" value="&lt;font face=&quot;Inter, sans-serif&quot;&gt;&lt;span style=&quot;white-space-collapse: preserve;&quot;&gt;Async Operations&lt;/span&gt;&lt;/font&gt;" style="text;strokeColor=none;fillColor=none;align=left;verticalAlign=middle;spacingLeft=4;spacingRight=4;overflow=hidden;points=[[0,0.5],[1,0.5]];portConstraint=eastwest;rotatable=0;whiteSpace=wrap;html=1;" vertex="1" parent="V2i5g9T7WKqpp7zr7P-A-1">
          <mxGeometry y="210" width="210" height="30" as="geometry" />
        </mxCell>
        <mxCell id="TzvX0-a--vITG9FtiX5o-9" value="&lt;font face=&quot;Inter, sans-serif&quot;&gt;&lt;span style=&quot;white-space-collapse: preserve;&quot;&gt;Image Handling&lt;/span&gt;&lt;/font&gt;" style="text;strokeColor=none;fillColor=none;align=left;verticalAlign=middle;spacingLeft=4;spacingRight=4;overflow=hidden;points=[[0,0.5],[1,0.5]];portConstraint=eastwest;rotatable=0;whiteSpace=wrap;html=1;" vertex="1" parent="V2i5g9T7WKqpp7zr7P-A-1">
          <mxGeometry y="240" width="210" height="30" as="geometry" />
        </mxCell>
        <mxCell id="TzvX0-a--vITG9FtiX5o-6" value="&lt;font face=&quot;Inter, sans-serif&quot;&gt;&lt;span style=&quot;white-space-collapse: preserve; background-color: rgb(255, 255, 255);&quot;&gt;Message to user&lt;/span&gt;&lt;/font&gt;" style="text;strokeColor=none;fillColor=none;align=left;verticalAlign=middle;spacingLeft=4;spacingRight=4;overflow=hidden;points=[[0,0.5],[1,0.5]];portConstraint=eastwest;rotatable=0;whiteSpace=wrap;html=1;" vertex="1" parent="V2i5g9T7WKqpp7zr7P-A-1">
          <mxGeometry y="270" width="210" height="30" as="geometry" />
        </mxCell>
        <mxCell id="TzvX0-a--vITG9FtiX5o-5" value="&lt;font face=&quot;Inter, sans-serif&quot;&gt;&lt;span style=&quot;white-space-collapse: preserve;&quot;&gt;File Management&lt;/span&gt;&lt;/font&gt;" style="text;strokeColor=none;fillColor=none;align=left;verticalAlign=middle;spacingLeft=4;spacingRight=4;overflow=hidden;points=[[0,0.5],[1,0.5]];portConstraint=eastwest;rotatable=0;whiteSpace=wrap;html=1;" vertex="1" parent="V2i5g9T7WKqpp7zr7P-A-1">
          <mxGeometry y="300" width="210" height="30" as="geometry" />
        </mxCell>
        <mxCell id="TzvX0-a--vITG9FtiX5o-2" value="&lt;font face=&quot;Inter, sans-serif&quot;&gt;&lt;span style=&quot;white-space-collapse: preserve;&quot;&gt;Browser Access&lt;/span&gt;&lt;/font&gt;" style="text;strokeColor=none;fillColor=none;align=left;verticalAlign=middle;spacingLeft=4;spacingRight=4;overflow=hidden;points=[[0,0.5],[1,0.5]];portConstraint=eastwest;rotatable=0;whiteSpace=wrap;html=1;" vertex="1" parent="V2i5g9T7WKqpp7zr7P-A-1">
          <mxGeometry y="330" width="210" height="30" as="geometry" />
        </mxCell>
        <mxCell id="V2i5g9T7WKqpp7zr7P-A-4" value="&lt;font face=&quot;Inter, sans-serif&quot;&gt;&lt;span style=&quot;white-space-collapse: preserve; background-color: rgb(255, 255, 255);&quot;&gt;N/A&lt;/span&gt;&lt;/font&gt;" style="text;strokeColor=none;fillColor=none;align=left;verticalAlign=middle;spacingLeft=4;spacingRight=4;overflow=hidden;points=[[0,0.5],[1,0.5]];portConstraint=eastwest;rotatable=0;whiteSpace=wrap;html=1;" vertex="1" parent="V2i5g9T7WKqpp7zr7P-A-1">
          <mxGeometry y="360" width="210" height="30" as="geometry" />
        </mxCell>
        <mxCell id="TzvX0-a--vITG9FtiX5o-10" value="Forms Management" style="swimlane;fontStyle=0;childLayout=stackLayout;horizontal=1;startSize=30;horizontalStack=0;resizeParent=1;resizeParentMax=0;resizeLast=0;collapsible=1;marginBottom=0;whiteSpace=wrap;html=1;" vertex="1" parent="1">
          <mxGeometry x="60" width="140" height="60" as="geometry" />
        </mxCell>
        <mxCell id="TzvX0-a--vITG9FtiX5o-11" value="SetForm" style="text;strokeColor=none;fillColor=none;align=left;verticalAlign=middle;spacingLeft=4;spacingRight=4;overflow=hidden;points=[[0,0.5],[1,0.5]];portConstraint=eastwest;rotatable=0;whiteSpace=wrap;html=1;" vertex="1" parent="TzvX0-a--vITG9FtiX5o-10">
          <mxGeometry y="30" width="140" height="30" as="geometry" />
        </mxCell>
        <mxCell id="TzvX0-a--vITG9FtiX5o-23" value="&lt;span style=&quot;text-align: left;&quot;&gt;TextBox Management&lt;/span&gt;" style="swimlane;fontStyle=0;childLayout=stackLayout;horizontal=1;startSize=30;horizontalStack=0;resizeParent=1;resizeParentMax=0;resizeLast=0;collapsible=1;marginBottom=0;whiteSpace=wrap;html=1;" vertex="1" parent="1">
          <mxGeometry x="667" width="160" height="210" as="geometry" />
        </mxCell>
        <mxCell id="TzvX0-a--vITG9FtiX5o-24" value="SetTextBoxReadOnly" style="text;strokeColor=none;fillColor=none;align=left;verticalAlign=middle;spacingLeft=4;spacingRight=4;overflow=hidden;points=[[0,0.5],[1,0.5]];portConstraint=eastwest;rotatable=0;whiteSpace=wrap;html=1;" vertex="1" parent="TzvX0-a--vITG9FtiX5o-23">
          <mxGeometry y="30" width="160" height="30" as="geometry" />
        </mxCell>
        <mxCell id="TzvX0-a--vITG9FtiX5o-25" value="ClearTextBoxes" style="text;strokeColor=none;fillColor=none;align=left;verticalAlign=middle;spacingLeft=4;spacingRight=4;overflow=hidden;points=[[0,0.5],[1,0.5]];portConstraint=eastwest;rotatable=0;whiteSpace=wrap;html=1;" vertex="1" parent="TzvX0-a--vITG9FtiX5o-23">
          <mxGeometry y="60" width="160" height="30" as="geometry" />
        </mxCell>
        <mxCell id="TzvX0-a--vITG9FtiX5o-26" value="&lt;font face=&quot;Inter, sans-serif&quot;&gt;&lt;span style=&quot;white-space-collapse: preserve;&quot;&gt;TextBox_KeyDown&lt;/span&gt;&lt;/font&gt;" style="text;strokeColor=none;fillColor=none;align=left;verticalAlign=middle;spacingLeft=4;spacingRight=4;overflow=hidden;points=[[0,0.5],[1,0.5]];portConstraint=eastwest;rotatable=0;whiteSpace=wrap;html=1;" vertex="1" parent="TzvX0-a--vITG9FtiX5o-23">
          <mxGeometry y="90" width="160" height="30" as="geometry" />
        </mxCell>
        <mxCell id="TzvX0-a--vITG9FtiX5o-27" value="&lt;font face=&quot;Inter, sans-serif&quot;&gt;&lt;span style=&quot;white-space-collapse: preserve;&quot;&gt;TextBox_Enter&lt;/span&gt;&lt;/font&gt;" style="text;strokeColor=none;fillColor=none;align=left;verticalAlign=middle;spacingLeft=4;spacingRight=4;overflow=hidden;points=[[0,0.5],[1,0.5]];portConstraint=eastwest;rotatable=0;whiteSpace=wrap;html=1;" vertex="1" parent="TzvX0-a--vITG9FtiX5o-23">
          <mxGeometry y="120" width="160" height="30" as="geometry" />
        </mxCell>
        <mxCell id="TzvX0-a--vITG9FtiX5o-28" value="&lt;font face=&quot;Inter, sans-serif&quot;&gt;&lt;span style=&quot;white-space-collapse: preserve;&quot;&gt;TextBox_Leave&lt;/span&gt;&lt;/font&gt;" style="text;strokeColor=none;fillColor=none;align=left;verticalAlign=middle;spacingLeft=4;spacingRight=4;overflow=hidden;points=[[0,0.5],[1,0.5]];portConstraint=eastwest;rotatable=0;whiteSpace=wrap;html=1;" vertex="1" parent="TzvX0-a--vITG9FtiX5o-23">
          <mxGeometry y="150" width="160" height="30" as="geometry" />
        </mxCell>
        <mxCell id="TzvX0-a--vITG9FtiX5o-29" value="&lt;font face=&quot;Inter, sans-serif&quot;&gt;&lt;span style=&quot;white-space-collapse: preserve;&quot;&gt;BindTextBoxEvent&lt;/span&gt;&lt;/font&gt;" style="text;strokeColor=none;fillColor=none;align=left;verticalAlign=middle;spacingLeft=4;spacingRight=4;overflow=hidden;points=[[0,0.5],[1,0.5]];portConstraint=eastwest;rotatable=0;whiteSpace=wrap;html=1;" vertex="1" parent="TzvX0-a--vITG9FtiX5o-23">
          <mxGeometry y="180" width="160" height="30" as="geometry" />
        </mxCell>
        <mxCell id="TzvX0-a--vITG9FtiX5o-36" value="&lt;div style=&quot;text-align: left;&quot;&gt;&lt;span style=&quot;background-color: transparent;&quot;&gt;Other Controls Management&lt;/span&gt;&lt;/div&gt;" style="swimlane;fontStyle=0;childLayout=stackLayout;horizontal=1;startSize=30;horizontalStack=0;resizeParent=1;resizeParentMax=0;resizeLast=0;collapsible=1;marginBottom=0;whiteSpace=wrap;html=1;" vertex="1" parent="1">
          <mxGeometry x="10" y="90" width="190" height="90" as="geometry" />
        </mxCell>
        <mxCell id="TzvX0-a--vITG9FtiX5o-37" value="HandleTrackBarScroll" style="text;strokeColor=none;fillColor=none;align=left;verticalAlign=middle;spacingLeft=4;spacingRight=4;overflow=hidden;points=[[0,0.5],[1,0.5]];portConstraint=eastwest;rotatable=0;whiteSpace=wrap;html=1;" vertex="1" parent="TzvX0-a--vITG9FtiX5o-36">
          <mxGeometry y="30" width="190" height="30" as="geometry" />
        </mxCell>
        <mxCell id="TzvX0-a--vITG9FtiX5o-38" value="ResetControlPosition" style="text;strokeColor=none;fillColor=none;align=left;verticalAlign=middle;spacingLeft=4;spacingRight=4;overflow=hidden;points=[[0,0.5],[1,0.5]];portConstraint=eastwest;rotatable=0;whiteSpace=wrap;html=1;" vertex="1" parent="TzvX0-a--vITG9FtiX5o-36">
          <mxGeometry y="60" width="190" height="30" as="geometry" />
        </mxCell>
        <mxCell id="TzvX0-a--vITG9FtiX5o-43" value="&lt;span style=&quot;font-family: Inter, sans-serif; text-align: left; white-space-collapse: preserve;&quot;&gt;DataGridView Management&lt;/span&gt;" style="swimlane;fontStyle=0;childLayout=stackLayout;horizontal=1;startSize=30;horizontalStack=0;resizeParent=1;resizeParentMax=0;resizeLast=0;collapsible=1;marginBottom=0;whiteSpace=wrap;html=1;" vertex="1" parent="1">
          <mxGeometry x="10" y="210" width="190" height="210" as="geometry" />
        </mxCell>
        <mxCell id="TzvX0-a--vITG9FtiX5o-44" value="RemoveSelectedRows" style="text;strokeColor=none;fillColor=none;align=left;verticalAlign=middle;spacingLeft=4;spacingRight=4;overflow=hidden;points=[[0,0.5],[1,0.5]];portConstraint=eastwest;rotatable=0;whiteSpace=wrap;html=1;" vertex="1" parent="TzvX0-a--vITG9FtiX5o-43">
          <mxGeometry y="30" width="190" height="30" as="geometry" />
        </mxCell>
        <mxCell id="TzvX0-a--vITG9FtiX5o-45" value="MoveToAdjacentCell" style="text;strokeColor=none;fillColor=none;align=left;verticalAlign=middle;spacingLeft=4;spacingRight=4;overflow=hidden;points=[[0,0.5],[1,0.5]];portConstraint=eastwest;rotatable=0;whiteSpace=wrap;html=1;" vertex="1" parent="TzvX0-a--vITG9FtiX5o-43">
          <mxGeometry y="60" width="190" height="30" as="geometry" />
        </mxCell>
        <mxCell id="TzvX0-a--vITG9FtiX5o-46" value="&lt;font face=&quot;Inter, sans-serif&quot;&gt;&lt;span style=&quot;white-space-collapse: preserve;&quot;&gt;IsLastEditableCellInRow&lt;/span&gt;&lt;/font&gt;" style="text;strokeColor=none;fillColor=none;align=left;verticalAlign=middle;spacingLeft=4;spacingRight=4;overflow=hidden;points=[[0,0.5],[1,0.5]];portConstraint=eastwest;rotatable=0;whiteSpace=wrap;html=1;" vertex="1" parent="TzvX0-a--vITG9FtiX5o-43">
          <mxGeometry y="90" width="190" height="30" as="geometry" />
        </mxCell>
        <mxCell id="TzvX0-a--vITG9FtiX5o-47" value="&lt;font face=&quot;Inter, sans-serif&quot;&gt;&lt;span style=&quot;white-space-collapse: preserve;&quot;&gt;IsFirstEditableCellInRow&lt;/span&gt;&lt;/font&gt;" style="text;strokeColor=none;fillColor=none;align=left;verticalAlign=middle;spacingLeft=4;spacingRight=4;overflow=hidden;points=[[0,0.5],[1,0.5]];portConstraint=eastwest;rotatable=0;whiteSpace=wrap;html=1;" vertex="1" parent="TzvX0-a--vITG9FtiX5o-43">
          <mxGeometry y="120" width="190" height="30" as="geometry" />
        </mxCell>
        <mxCell id="TzvX0-a--vITG9FtiX5o-48" value="&lt;font face=&quot;Inter, sans-serif&quot;&gt;&lt;span style=&quot;white-space-collapse: preserve;&quot;&gt;MoveToNextEditableCell&lt;/span&gt;&lt;/font&gt;" style="text;strokeColor=none;fillColor=none;align=left;verticalAlign=middle;spacingLeft=4;spacingRight=4;overflow=hidden;points=[[0,0.5],[1,0.5]];portConstraint=eastwest;rotatable=0;whiteSpace=wrap;html=1;" vertex="1" parent="TzvX0-a--vITG9FtiX5o-43">
          <mxGeometry y="150" width="190" height="30" as="geometry" />
        </mxCell>
        <mxCell id="TzvX0-a--vITG9FtiX5o-49" value="&lt;font face=&quot;Inter, sans-serif&quot;&gt;&lt;span style=&quot;white-space-collapse: preserve;&quot;&gt;RewriteSequence&lt;/span&gt;&lt;/font&gt;" style="text;strokeColor=none;fillColor=none;align=left;verticalAlign=middle;spacingLeft=4;spacingRight=4;overflow=hidden;points=[[0,0.5],[1,0.5]];portConstraint=eastwest;rotatable=0;whiteSpace=wrap;html=1;" vertex="1" parent="TzvX0-a--vITG9FtiX5o-43">
          <mxGeometry y="180" width="190" height="30" as="geometry" />
        </mxCell>
        <mxCell id="TzvX0-a--vITG9FtiX5o-50" value="&lt;div style=&quot;text-align: left;&quot;&gt;&lt;span style=&quot;background-color: transparent; white-space-collapse: preserve;&quot;&gt;&lt;font face=&quot;Inter, sans-serif&quot;&gt;Data Management&lt;/font&gt;&lt;/span&gt;&lt;/div&gt;" style="swimlane;fontStyle=0;childLayout=stackLayout;horizontal=1;startSize=30;horizontalStack=0;resizeParent=1;resizeParentMax=0;resizeLast=0;collapsible=1;marginBottom=0;whiteSpace=wrap;html=1;" vertex="1" parent="1">
          <mxGeometry x="670" y="250" width="157" height="120" as="geometry" />
        </mxCell>
        <mxCell id="TzvX0-a--vITG9FtiX5o-51" value="BindRowDataToTextBoxes" style="text;strokeColor=none;fillColor=none;align=left;verticalAlign=middle;spacingLeft=4;spacingRight=4;overflow=hidden;points=[[0,0.5],[1,0.5]];portConstraint=eastwest;rotatable=0;whiteSpace=wrap;html=1;" vertex="1" parent="TzvX0-a--vITG9FtiX5o-50">
          <mxGeometry y="30" width="157" height="30" as="geometry" />
        </mxCell>
        <mxCell id="TzvX0-a--vITG9FtiX5o-52" value="ExecuteSearchAsync" style="text;strokeColor=none;fillColor=none;align=left;verticalAlign=middle;spacingLeft=4;spacingRight=4;overflow=hidden;points=[[0,0.5],[1,0.5]];portConstraint=eastwest;rotatable=0;whiteSpace=wrap;html=1;" vertex="1" parent="TzvX0-a--vITG9FtiX5o-50">
          <mxGeometry y="60" width="157" height="30" as="geometry" />
        </mxCell>
        <mxCell id="TzvX0-a--vITG9FtiX5o-53" value="&lt;font face=&quot;Inter, sans-serif&quot;&gt;&lt;span style=&quot;white-space-collapse: preserve;&quot;&gt;UpdateSearchResults&lt;/span&gt;&lt;/font&gt;" style="text;strokeColor=none;fillColor=none;align=left;verticalAlign=middle;spacingLeft=4;spacingRight=4;overflow=hidden;points=[[0,0.5],[1,0.5]];portConstraint=eastwest;rotatable=0;whiteSpace=wrap;html=1;" vertex="1" parent="TzvX0-a--vITG9FtiX5o-50">
          <mxGeometry y="90" width="157" height="30" as="geometry" />
        </mxCell>
        <mxCell id="TzvX0-a--vITG9FtiX5o-57" value="&lt;div style=&quot;text-align: left;&quot;&gt;&lt;font face=&quot;Inter, sans-serif&quot;&gt;&lt;span style=&quot;white-space-collapse: preserve;&quot;&gt;Confirmation and Validation&lt;/span&gt;&lt;/font&gt;&lt;/div&gt;" style="swimlane;fontStyle=0;childLayout=stackLayout;horizontal=1;startSize=40;horizontalStack=0;resizeParent=1;resizeParentMax=0;resizeLast=0;collapsible=1;marginBottom=0;whiteSpace=wrap;html=1;" vertex="1" parent="1">
          <mxGeometry x="670" y="410" width="157" height="100" as="geometry" />
        </mxCell>
        <mxCell id="TzvX0-a--vITG9FtiX5o-58" value="ConfirmAction" style="text;strokeColor=none;fillColor=none;align=left;verticalAlign=middle;spacingLeft=4;spacingRight=4;overflow=hidden;points=[[0,0.5],[1,0.5]];portConstraint=eastwest;rotatable=0;whiteSpace=wrap;html=1;" vertex="1" parent="TzvX0-a--vITG9FtiX5o-57">
          <mxGeometry y="40" width="157" height="30" as="geometry" />
        </mxCell>
        <mxCell id="TzvX0-a--vITG9FtiX5o-59" value="ValidateValue" style="text;strokeColor=none;fillColor=none;align=left;verticalAlign=middle;spacingLeft=4;spacingRight=4;overflow=hidden;points=[[0,0.5],[1,0.5]];portConstraint=eastwest;rotatable=0;whiteSpace=wrap;html=1;" vertex="1" parent="TzvX0-a--vITG9FtiX5o-57">
          <mxGeometry y="70" width="157" height="30" as="geometry" />
        </mxCell>
        <mxCell id="TzvX0-a--vITG9FtiX5o-61" value="&lt;div style=&quot;text-align: left;&quot;&gt;&lt;font face=&quot;Inter, sans-serif&quot;&gt;&lt;span style=&quot;white-space-collapse: preserve;&quot;&gt;Async Operations&lt;/span&gt;&lt;/font&gt;&lt;/div&gt;" style="swimlane;fontStyle=0;childLayout=stackLayout;horizontal=1;startSize=30;horizontalStack=0;resizeParent=1;resizeParentMax=0;resizeLast=0;collapsible=1;marginBottom=0;whiteSpace=wrap;html=1;" vertex="1" parent="1">
          <mxGeometry x="43" y="450" width="157" height="120" as="geometry" />
        </mxCell>
        <mxCell id="TzvX0-a--vITG9FtiX5o-62" value="SaveOrUpdateAsync" style="text;strokeColor=none;fillColor=none;align=left;verticalAlign=middle;spacingLeft=4;spacingRight=4;overflow=hidden;points=[[0,0.5],[1,0.5]];portConstraint=eastwest;rotatable=0;whiteSpace=wrap;html=1;" vertex="1" parent="TzvX0-a--vITG9FtiX5o-61">
          <mxGeometry y="30" width="157" height="30" as="geometry" />
        </mxCell>
        <mxCell id="TzvX0-a--vITG9FtiX5o-63" value="ProcessActionAsync" style="text;strokeColor=none;fillColor=none;align=left;verticalAlign=middle;spacingLeft=4;spacingRight=4;overflow=hidden;points=[[0,0.5],[1,0.5]];portConstraint=eastwest;rotatable=0;whiteSpace=wrap;html=1;" vertex="1" parent="TzvX0-a--vITG9FtiX5o-61">
          <mxGeometry y="60" width="157" height="30" as="geometry" />
        </mxCell>
        <mxCell id="TzvX0-a--vITG9FtiX5o-64" value="&lt;font face=&quot;Inter, sans-serif&quot;&gt;&lt;span style=&quot;white-space-collapse: preserve;&quot;&gt;GenerateId&lt;/span&gt;&lt;/font&gt;" style="text;strokeColor=none;fillColor=none;align=left;verticalAlign=middle;spacingLeft=4;spacingRight=4;overflow=hidden;points=[[0,0.5],[1,0.5]];portConstraint=eastwest;rotatable=0;whiteSpace=wrap;html=1;" vertex="1" parent="TzvX0-a--vITG9FtiX5o-61">
          <mxGeometry y="90" width="157" height="30" as="geometry" />
        </mxCell>
        <mxCell id="TzvX0-a--vITG9FtiX5o-65" value="&lt;div style=&quot;text-align: left;&quot;&gt;&lt;font face=&quot;Inter, sans-serif&quot;&gt;&lt;span style=&quot;white-space-collapse: preserve;&quot;&gt;Image Handling&lt;/span&gt;&lt;/font&gt;&lt;/div&gt;" style="swimlane;fontStyle=0;childLayout=stackLayout;horizontal=1;startSize=30;horizontalStack=0;resizeParent=1;resizeParentMax=0;resizeLast=0;collapsible=1;marginBottom=0;whiteSpace=wrap;html=1;" vertex="1" parent="1">
          <mxGeometry x="670" y="540" width="157" height="60" as="geometry" />
        </mxCell>
        <mxCell id="TzvX0-a--vITG9FtiX5o-66" value="LoadImage" style="text;strokeColor=none;fillColor=none;align=left;verticalAlign=middle;spacingLeft=4;spacingRight=4;overflow=hidden;points=[[0,0.5],[1,0.5]];portConstraint=eastwest;rotatable=0;whiteSpace=wrap;html=1;" vertex="1" parent="TzvX0-a--vITG9FtiX5o-65">
          <mxGeometry y="30" width="157" height="30" as="geometry" />
        </mxCell>
        <mxCell id="TzvX0-a--vITG9FtiX5o-68" value="&lt;div style=&quot;text-align: left;&quot;&gt;&lt;font face=&quot;Inter, sans-serif&quot;&gt;&lt;span style=&quot;white-space-collapse: preserve;&quot;&gt;File Management&lt;/span&gt;&lt;/font&gt;&lt;/div&gt;" style="swimlane;fontStyle=0;childLayout=stackLayout;horizontal=1;startSize=30;horizontalStack=0;resizeParent=1;resizeParentMax=0;resizeLast=0;collapsible=1;marginBottom=0;whiteSpace=wrap;html=1;" vertex="1" parent="1">
          <mxGeometry x="670" y="650" width="157" height="60" as="geometry" />
        </mxCell>
        <mxCell id="TzvX0-a--vITG9FtiX5o-69" value="RP" style="text;strokeColor=none;fillColor=none;align=left;verticalAlign=middle;spacingLeft=4;spacingRight=4;overflow=hidden;points=[[0,0.5],[1,0.5]];portConstraint=eastwest;rotatable=0;whiteSpace=wrap;html=1;" vertex="1" parent="TzvX0-a--vITG9FtiX5o-68">
          <mxGeometry y="30" width="157" height="30" as="geometry" />
        </mxCell>
        <mxCell id="TzvX0-a--vITG9FtiX5o-70" value="&lt;div style=&quot;text-align: left;&quot;&gt;&lt;span style=&quot;font-family: Inter, sans-serif; white-space-collapse: preserve; background-color: rgb(255, 255, 255);&quot;&gt;Message to user&lt;/span&gt;&lt;/div&gt;" style="swimlane;fontStyle=0;childLayout=stackLayout;horizontal=1;startSize=30;horizontalStack=0;resizeParent=1;resizeParentMax=0;resizeLast=0;collapsible=1;marginBottom=0;whiteSpace=wrap;html=1;" vertex="1" parent="1">
          <mxGeometry x="43" y="625" width="157" height="150" as="geometry" />
        </mxCell>
        <mxCell id="TzvX0-a--vITG9FtiX5o-71" value="ShowMessage" style="text;strokeColor=none;fillColor=none;align=left;verticalAlign=middle;spacingLeft=4;spacingRight=4;overflow=hidden;points=[[0,0.5],[1,0.5]];portConstraint=eastwest;rotatable=0;whiteSpace=wrap;html=1;" vertex="1" parent="TzvX0-a--vITG9FtiX5o-70">
          <mxGeometry y="30" width="157" height="30" as="geometry" />
        </mxCell>
        <mxCell id="TzvX0-a--vITG9FtiX5o-72" value="ShowResultMessage" style="text;strokeColor=none;fillColor=none;align=left;verticalAlign=middle;spacingLeft=4;spacingRight=4;overflow=hidden;points=[[0,0.5],[1,0.5]];portConstraint=eastwest;rotatable=0;whiteSpace=wrap;html=1;" vertex="1" parent="TzvX0-a--vITG9FtiX5o-70">
          <mxGeometry y="60" width="157" height="30" as="geometry" />
        </mxCell>
        <mxCell id="TzvX0-a--vITG9FtiX5o-73" value="&lt;font face=&quot;Inter, sans-serif&quot;&gt;&lt;span style=&quot;white-space-collapse: preserve;&quot;&gt;HandleException&lt;/span&gt;&lt;/font&gt;" style="text;strokeColor=none;fillColor=none;align=left;verticalAlign=middle;spacingLeft=4;spacingRight=4;overflow=hidden;points=[[0,0.5],[1,0.5]];portConstraint=eastwest;rotatable=0;whiteSpace=wrap;html=1;" vertex="1" parent="TzvX0-a--vITG9FtiX5o-70">
          <mxGeometry y="90" width="157" height="30" as="geometry" />
        </mxCell>
        <mxCell id="TzvX0-a--vITG9FtiX5o-74" value="&lt;font face=&quot;Inter, sans-serif&quot;&gt;&lt;span style=&quot;white-space-collapse: preserve;&quot;&gt;HandleSearchException&lt;/span&gt;&lt;/font&gt;" style="text;strokeColor=none;fillColor=none;align=left;verticalAlign=middle;spacingLeft=4;spacingRight=4;overflow=hidden;points=[[0,0.5],[1,0.5]];portConstraint=eastwest;rotatable=0;whiteSpace=wrap;html=1;" vertex="1" parent="TzvX0-a--vITG9FtiX5o-70">
          <mxGeometry y="120" width="157" height="30" as="geometry" />
        </mxCell>
        <mxCell id="TzvX0-a--vITG9FtiX5o-75" value="&lt;div style=&quot;text-align: left;&quot;&gt;&lt;font face=&quot;Inter, sans-serif&quot;&gt;&lt;span style=&quot;white-space-collapse: preserve;&quot;&gt;Browser Access&lt;/span&gt;&lt;/font&gt;&lt;/div&gt;" style="swimlane;fontStyle=0;childLayout=stackLayout;horizontal=1;startSize=30;horizontalStack=0;resizeParent=1;resizeParentMax=0;resizeLast=0;collapsible=1;marginBottom=0;whiteSpace=wrap;html=1;" vertex="1" parent="1">
          <mxGeometry x="670" y="740" width="157" height="60" as="geometry" />
        </mxCell>
        <mxCell id="TzvX0-a--vITG9FtiX5o-76" value="AccessBrowser" style="text;strokeColor=none;fillColor=none;align=left;verticalAlign=middle;spacingLeft=4;spacingRight=4;overflow=hidden;points=[[0,0.5],[1,0.5]];portConstraint=eastwest;rotatable=0;whiteSpace=wrap;html=1;" vertex="1" parent="TzvX0-a--vITG9FtiX5o-75">
          <mxGeometry y="30" width="157" height="30" as="geometry" />
        </mxCell>
        <mxCell id="TzvX0-a--vITG9FtiX5o-77" style="edgeStyle=orthogonalEdgeStyle;rounded=0;orthogonalLoop=1;jettySize=auto;html=1;exitX=0;exitY=0.5;exitDx=0;exitDy=0;entryX=1;entryY=0.25;entryDx=0;entryDy=0;" edge="1" parent="1" source="V2i5g9T7WKqpp7zr7P-A-2" target="TzvX0-a--vITG9FtiX5o-10">
          <mxGeometry relative="1" as="geometry" />
        </mxCell>
        <mxCell id="TzvX0-a--vITG9FtiX5o-79" style="edgeStyle=orthogonalEdgeStyle;rounded=0;orthogonalLoop=1;jettySize=auto;html=1;exitX=1;exitY=0.5;exitDx=0;exitDy=0;entryX=0;entryY=0.5;entryDx=0;entryDy=0;" edge="1" parent="1" source="V2i5g9T7WKqpp7zr7P-A-3" target="TzvX0-a--vITG9FtiX5o-24">
          <mxGeometry relative="1" as="geometry" />
        </mxCell>
        <mxCell id="TzvX0-a--vITG9FtiX5o-80" style="edgeStyle=orthogonalEdgeStyle;rounded=0;orthogonalLoop=1;jettySize=auto;html=1;exitX=0;exitY=0.5;exitDx=0;exitDy=0;entryX=1;entryY=0.25;entryDx=0;entryDy=0;" edge="1" parent="1" source="TzvX0-a--vITG9FtiX5o-1" target="TzvX0-a--vITG9FtiX5o-36">
          <mxGeometry relative="1" as="geometry" />
        </mxCell>
        <mxCell id="TzvX0-a--vITG9FtiX5o-81" style="edgeStyle=orthogonalEdgeStyle;rounded=0;orthogonalLoop=1;jettySize=auto;html=1;exitX=0;exitY=0.5;exitDx=0;exitDy=0;entryX=1;entryY=0.5;entryDx=0;entryDy=0;" edge="1" parent="1" source="TzvX0-a--vITG9FtiX5o-3" target="TzvX0-a--vITG9FtiX5o-44">
          <mxGeometry relative="1" as="geometry" />
        </mxCell>
        <mxCell id="TzvX0-a--vITG9FtiX5o-82" style="edgeStyle=orthogonalEdgeStyle;rounded=0;orthogonalLoop=1;jettySize=auto;html=1;exitX=1;exitY=0.5;exitDx=0;exitDy=0;entryX=0;entryY=0.5;entryDx=0;entryDy=0;" edge="1" parent="1" source="TzvX0-a--vITG9FtiX5o-4" target="TzvX0-a--vITG9FtiX5o-51">
          <mxGeometry relative="1" as="geometry">
            <Array as="points">
              <mxPoint x="650" y="165" />
              <mxPoint x="650" y="295" />
            </Array>
          </mxGeometry>
        </mxCell>
        <mxCell id="TzvX0-a--vITG9FtiX5o-83" style="edgeStyle=orthogonalEdgeStyle;rounded=0;orthogonalLoop=1;jettySize=auto;html=1;exitX=1;exitY=0.5;exitDx=0;exitDy=0;entryX=0;entryY=0.25;entryDx=0;entryDy=0;" edge="1" parent="1" source="TzvX0-a--vITG9FtiX5o-7" target="TzvX0-a--vITG9FtiX5o-57">
          <mxGeometry relative="1" as="geometry">
            <Array as="points">
              <mxPoint x="630" y="195" />
              <mxPoint x="630" y="435" />
            </Array>
          </mxGeometry>
        </mxCell>
        <mxCell id="TzvX0-a--vITG9FtiX5o-84" style="edgeStyle=orthogonalEdgeStyle;rounded=0;orthogonalLoop=1;jettySize=auto;html=1;exitX=0;exitY=0.5;exitDx=0;exitDy=0;entryX=1;entryY=0.25;entryDx=0;entryDy=0;" edge="1" parent="1" source="TzvX0-a--vITG9FtiX5o-8" target="TzvX0-a--vITG9FtiX5o-61">
          <mxGeometry relative="1" as="geometry">
            <Array as="points">
              <mxPoint x="280" y="225" />
              <mxPoint x="280" y="480" />
            </Array>
          </mxGeometry>
        </mxCell>
        <mxCell id="TzvX0-a--vITG9FtiX5o-85" style="edgeStyle=orthogonalEdgeStyle;rounded=0;orthogonalLoop=1;jettySize=auto;html=1;exitX=1;exitY=0.5;exitDx=0;exitDy=0;entryX=0;entryY=0.5;entryDx=0;entryDy=0;" edge="1" parent="1" source="TzvX0-a--vITG9FtiX5o-9" target="TzvX0-a--vITG9FtiX5o-66">
          <mxGeometry relative="1" as="geometry" />
        </mxCell>
        <mxCell id="TzvX0-a--vITG9FtiX5o-86" style="edgeStyle=orthogonalEdgeStyle;rounded=0;orthogonalLoop=1;jettySize=auto;html=1;exitX=0;exitY=0.5;exitDx=0;exitDy=0;entryX=1;entryY=0.5;entryDx=0;entryDy=0;" edge="1" parent="1" source="TzvX0-a--vITG9FtiX5o-6" target="TzvX0-a--vITG9FtiX5o-71">
          <mxGeometry relative="1" as="geometry">
            <Array as="points">
              <mxPoint x="310" y="285" />
              <mxPoint x="310" y="670" />
            </Array>
          </mxGeometry>
        </mxCell>
        <mxCell id="TzvX0-a--vITG9FtiX5o-87" style="edgeStyle=orthogonalEdgeStyle;rounded=0;orthogonalLoop=1;jettySize=auto;html=1;exitX=1;exitY=0.5;exitDx=0;exitDy=0;entryX=0;entryY=0.5;entryDx=0;entryDy=0;" edge="1" parent="1" source="TzvX0-a--vITG9FtiX5o-5" target="TzvX0-a--vITG9FtiX5o-69">
          <mxGeometry relative="1" as="geometry">
            <Array as="points">
              <mxPoint x="580" y="315" />
              <mxPoint x="580" y="695" />
            </Array>
          </mxGeometry>
        </mxCell>
        <mxCell id="TzvX0-a--vITG9FtiX5o-88" style="edgeStyle=orthogonalEdgeStyle;rounded=0;orthogonalLoop=1;jettySize=auto;html=1;exitX=1;exitY=0.5;exitDx=0;exitDy=0;entryX=0;entryY=0.5;entryDx=0;entryDy=0;" edge="1" parent="1" source="TzvX0-a--vITG9FtiX5o-2" target="TzvX0-a--vITG9FtiX5o-76">
          <mxGeometry relative="1" as="geometry">
            <Array as="points">
              <mxPoint x="560" y="345" />
              <mxPoint x="560" y="785" />
            </Array>
          </mxGeometry>
        </mxCell>
      </root>
    </mxGraphModel>
  </diagram>
  <diagram id="noiZoiwlGLu55qbAZZqS" name="Program">
    <mxGraphModel dx="1300" dy="750" grid="1" gridSize="10" guides="1" tooltips="1" connect="1" arrows="1" fold="1" page="1" pageScale="1" pageWidth="850" pageHeight="1100" math="0" shadow="0">
      <root>
        <mxCell id="0" />
        <mxCell id="1" parent="0" />
        <mxCell id="n1QGqihoybXl6kB9THnK-10" style="edgeStyle=orthogonalEdgeStyle;rounded=0;orthogonalLoop=1;jettySize=auto;html=1;exitX=1;exitY=0.25;exitDx=0;exitDy=0;entryX=0;entryY=0.25;entryDx=0;entryDy=0;" edge="1" parent="1" source="n1QGqihoybXl6kB9THnK-1" target="n1QGqihoybXl6kB9THnK-2">
          <mxGeometry relative="1" as="geometry" />
        </mxCell>
        <mxCell id="n1QGqihoybXl6kB9THnK-38" style="edgeStyle=orthogonalEdgeStyle;rounded=0;orthogonalLoop=1;jettySize=auto;html=1;exitX=0.5;exitY=1;exitDx=0;exitDy=0;" edge="1" parent="1" source="n1QGqihoybXl6kB9THnK-1" target="n1QGqihoybXl6kB9THnK-37">
          <mxGeometry relative="1" as="geometry" />
        </mxCell>
        <mxCell id="n1QGqihoybXl6kB9THnK-1" value="Database Server" style="rounded=1;whiteSpace=wrap;html=1;" vertex="1" parent="1">
          <mxGeometry x="30" y="180" width="120" height="60" as="geometry" />
        </mxCell>
        <mxCell id="n1QGqihoybXl6kB9THnK-11" style="edgeStyle=orthogonalEdgeStyle;rounded=0;orthogonalLoop=1;jettySize=auto;html=1;exitX=0;exitY=0.75;exitDx=0;exitDy=0;entryX=1;entryY=0.75;entryDx=0;entryDy=0;" edge="1" parent="1" source="n1QGqihoybXl6kB9THnK-2" target="n1QGqihoybXl6kB9THnK-1">
          <mxGeometry relative="1" as="geometry" />
        </mxCell>
        <mxCell id="n1QGqihoybXl6kB9THnK-12" style="edgeStyle=orthogonalEdgeStyle;rounded=0;orthogonalLoop=1;jettySize=auto;html=1;exitX=1;exitY=0.25;exitDx=0;exitDy=0;entryX=0;entryY=0.25;entryDx=0;entryDy=0;" edge="1" parent="1" source="n1QGqihoybXl6kB9THnK-2" target="n1QGqihoybXl6kB9THnK-3">
          <mxGeometry relative="1" as="geometry" />
        </mxCell>
        <mxCell id="n1QGqihoybXl6kB9THnK-2" value="IIS(API)" style="rounded=1;whiteSpace=wrap;html=1;" vertex="1" parent="1">
          <mxGeometry x="190" y="180" width="120" height="60" as="geometry" />
        </mxCell>
        <mxCell id="n1QGqihoybXl6kB9THnK-34" style="edgeStyle=orthogonalEdgeStyle;rounded=0;orthogonalLoop=1;jettySize=auto;html=1;exitX=0.75;exitY=0;exitDx=0;exitDy=0;entryX=0.25;entryY=0;entryDx=0;entryDy=0;" edge="1" parent="1" source="n1QGqihoybXl6kB9THnK-3" target="n1QGqihoybXl6kB9THnK-4">
          <mxGeometry relative="1" as="geometry" />
        </mxCell>
        <mxCell id="n1QGqihoybXl6kB9THnK-3" value="Redis Server(API)" style="rounded=1;whiteSpace=wrap;html=1;" vertex="1" parent="1">
          <mxGeometry x="365" y="180" width="120" height="60" as="geometry" />
        </mxCell>
        <mxCell id="n1QGqihoybXl6kB9THnK-13" style="edgeStyle=orthogonalEdgeStyle;rounded=0;orthogonalLoop=1;jettySize=auto;html=1;exitX=0.75;exitY=1;exitDx=0;exitDy=0;entryX=0.25;entryY=1;entryDx=0;entryDy=0;" edge="1" parent="1" source="n1QGqihoybXl6kB9THnK-4" target="n1QGqihoybXl6kB9THnK-2">
          <mxGeometry relative="1" as="geometry">
            <Array as="points">
              <mxPoint x="750" y="420" />
              <mxPoint x="220" y="420" />
            </Array>
          </mxGeometry>
        </mxCell>
        <mxCell id="n1QGqihoybXl6kB9THnK-17" style="edgeStyle=orthogonalEdgeStyle;rounded=0;orthogonalLoop=1;jettySize=auto;html=1;exitX=0.5;exitY=1;exitDx=0;exitDy=0;entryX=0.5;entryY=1;entryDx=0;entryDy=0;" edge="1" parent="1" source="n1QGqihoybXl6kB9THnK-4" target="n1QGqihoybXl6kB9THnK-2">
          <mxGeometry relative="1" as="geometry">
            <Array as="points">
              <mxPoint x="720" y="370" />
              <mxPoint x="250" y="370" />
            </Array>
          </mxGeometry>
        </mxCell>
        <mxCell id="n1QGqihoybXl6kB9THnK-20" style="edgeStyle=orthogonalEdgeStyle;rounded=0;orthogonalLoop=1;jettySize=auto;html=1;exitX=0.75;exitY=0;exitDx=0;exitDy=0;entryX=0.25;entryY=0;entryDx=0;entryDy=0;" edge="1" parent="1" source="n1QGqihoybXl6kB9THnK-4" target="n1QGqihoybXl6kB9THnK-2">
          <mxGeometry relative="1" as="geometry">
            <Array as="points">
              <mxPoint x="750" y="60" />
              <mxPoint x="220" y="60" />
            </Array>
          </mxGeometry>
        </mxCell>
        <mxCell id="n1QGqihoybXl6kB9THnK-25" style="edgeStyle=orthogonalEdgeStyle;rounded=0;orthogonalLoop=1;jettySize=auto;html=1;exitX=0;exitY=0.5;exitDx=0;exitDy=0;entryX=1;entryY=0.5;entryDx=0;entryDy=0;endArrow=none;startFill=1;startArrow=classic;" edge="1" parent="1" source="n1QGqihoybXl6kB9THnK-4" target="n1QGqihoybXl6kB9THnK-3">
          <mxGeometry relative="1" as="geometry">
            <Array as="points">
              <mxPoint x="570" y="210" />
              <mxPoint x="570" y="210" />
            </Array>
          </mxGeometry>
        </mxCell>
        <mxCell id="n1QGqihoybXl6kB9THnK-26" style="edgeStyle=orthogonalEdgeStyle;rounded=0;orthogonalLoop=1;jettySize=auto;html=1;exitX=0.25;exitY=1;exitDx=0;exitDy=0;entryX=0.75;entryY=1;entryDx=0;entryDy=0;endArrow=none;startFill=1;startArrow=classic;" edge="1" parent="1" source="n1QGqihoybXl6kB9THnK-4" target="n1QGqihoybXl6kB9THnK-2">
          <mxGeometry relative="1" as="geometry">
            <Array as="points">
              <mxPoint x="690" y="330" />
              <mxPoint x="280" y="330" />
            </Array>
          </mxGeometry>
        </mxCell>
        <mxCell id="n1QGqihoybXl6kB9THnK-4" value="Management End UI" style="rounded=1;whiteSpace=wrap;html=1;" vertex="1" parent="1">
          <mxGeometry x="660" y="180" width="120" height="60" as="geometry" />
        </mxCell>
        <mxCell id="n1QGqihoybXl6kB9THnK-6" value="Read (If low consistency requirement)" style="text;html=1;align=center;verticalAlign=middle;whiteSpace=wrap;rounded=0;" vertex="1" parent="1">
          <mxGeometry x="460" y="130" width="220" height="30" as="geometry" />
        </mxCell>
        <mxCell id="n1QGqihoybXl6kB9THnK-8" value="When read or search data first time" style="text;html=1;align=center;verticalAlign=middle;whiteSpace=wrap;rounded=0;" vertex="1" parent="1">
          <mxGeometry x="305" y="140" width="60" height="30" as="geometry" />
        </mxCell>
        <mxCell id="n1QGqihoybXl6kB9THnK-14" value="Update" style="text;html=1;align=center;verticalAlign=middle;whiteSpace=wrap;rounded=0;" vertex="1" parent="1">
          <mxGeometry x="650" y="390" width="60" height="30" as="geometry" />
        </mxCell>
        <mxCell id="n1QGqihoybXl6kB9THnK-18" value="Insert" style="text;html=1;align=center;verticalAlign=middle;whiteSpace=wrap;rounded=0;" vertex="1" parent="1">
          <mxGeometry x="600" y="340" width="60" height="30" as="geometry" />
        </mxCell>
        <mxCell id="n1QGqihoybXl6kB9THnK-22" value="Delete" style="text;html=1;align=center;verticalAlign=middle;whiteSpace=wrap;rounded=0;" vertex="1" parent="1">
          <mxGeometry x="580" y="30" width="60" height="30" as="geometry" />
        </mxCell>
        <mxCell id="n1QGqihoybXl6kB9THnK-27" value="Search (If precise query)" style="text;html=1;align=center;verticalAlign=middle;whiteSpace=wrap;rounded=0;" vertex="1" parent="1">
          <mxGeometry x="500" y="180" width="140" height="30" as="geometry" />
        </mxCell>
        <mxCell id="n1QGqihoybXl6kB9THnK-28" value="Search (If fuzzy query)" style="text;html=1;align=center;verticalAlign=middle;whiteSpace=wrap;rounded=0;" vertex="1" parent="1">
          <mxGeometry x="525" y="300" width="135" height="30" as="geometry" />
        </mxCell>
        <mxCell id="n1QGqihoybXl6kB9THnK-37" value="Backup Server" style="rounded=1;whiteSpace=wrap;html=1;" vertex="1" parent="1">
          <mxGeometry x="30" y="310" width="120" height="60" as="geometry" />
        </mxCell>
        <mxCell id="n1QGqihoybXl6kB9THnK-39" value="Customer End UI" style="rounded=1;whiteSpace=wrap;html=1;" vertex="1" parent="1">
          <mxGeometry x="405" y="500" width="120" height="60" as="geometry" />
        </mxCell>
        <mxCell id="n1QGqihoybXl6kB9THnK-40" value="unique apikey, access orders and order details, send order, deposit, change info, sign in/out, chat require support&amp;nbsp;" style="shape=note;whiteSpace=wrap;html=1;backgroundOutline=1;darkOpacity=0.05;" vertex="1" parent="1">
          <mxGeometry x="200" y="460" width="165" height="170" as="geometry" />
        </mxCell>
      </root>
    </mxGraphModel>
  </diagram>
</mxfile>
